<svg xmlns="http://www.w3.org/2000/svg" xmlns:xlink="http://www.w3.org/1999/xlink" width="727" height="72" viewBox="0 0 727 72">
    <defs>
        <path id="a" d="M0 70.076h725.151V0H0z"/>
    </defs>
    <g fill="none" fill-rule="evenodd" transform="translate(1 1)">
        <path fill="#FEFEFE" d="M17.914 62.8c1.026 0 1.862-.827 1.862-1.838 0-1.013-.836-1.84-1.862-1.84-1.026 0-1.862.827-1.862 1.84 0 1.01.836 1.838 1.862 1.838zm0-10.227c4.685 0 8.499 3.763 8.499 8.389 0 4.623-3.814 8.387-8.499 8.387-4.685 0-8.499-3.764-8.499-8.387 0-4.626 3.814-8.389 8.499-8.389z"/>
        <path stroke="#111" stroke-linecap="round" stroke-linejoin="round" stroke-width="1.11" d="M17.914 62.8c-1.026 0-1.862-.827-1.862-1.838 0-1.013.836-1.84 1.862-1.84 1.026 0 1.862.827 1.862 1.84 0 1.01-.836 1.838-1.862 1.838zm0-10.227c-4.685 0-8.499 3.763-8.499 8.389 0 4.623 3.814 8.387 8.499 8.387 4.685 0 8.499-3.764 8.499-8.387 0-4.626-3.814-8.389-8.499-8.389z"/>
        <path fill="#FEFEFE" d="M48.291 63.032c-1.026 0-1.862-.827-1.862-1.838 0-1.012.836-1.838 1.862-1.838 1.026 0 1.862.826 1.862 1.838 0 1.011-.836 1.838-1.862 1.838m0-10.226c-4.685 0-8.499 3.764-8.499 8.388 0 4.624 3.814 8.387 8.499 8.387 4.685 0 8.499-3.763 8.499-8.387 0-4.624-3.814-8.388-8.499-8.388"/>
        <path stroke="#111" stroke-linecap="round" stroke-linejoin="round" stroke-width="1.11" d="M48.291 63.032c-1.026 0-1.862-.827-1.862-1.838 0-1.012.836-1.838 1.862-1.838 1.026 0 1.862.826 1.862 1.838 0 1.011-.836 1.838-1.862 1.838zm0-10.226c-4.685 0-8.499 3.764-8.499 8.388 0 4.624 3.814 8.387 8.499 8.387 4.685 0 8.499-3.763 8.499-8.387 0-4.624-3.814-8.388-8.499-8.388z"/>
        <path fill="#FEFEFE" d="M42.417 43.505c.63-1.85 1.474-3.856 2.324-4.877 1.895-2.289 6.784-3.342 8.45-3.04l-2.6 7.917h-8.174zm-14.272-12.5c-.465 1.606-1.37 2.351-2.05 2.692-.352.176-.68.267-.943.303-.585-4.111-4.126-7.606-6.51-9.954-.6-.74-1.27-3.724-1.644-6.995h14.864c-.969 3.814-2.529 9.848-3.717 13.954zM72.783.492V2.6c-6.68 0-10.437 5.456-11.636 8.77l-5.95 18.111a9.614 9.614 0 0 0-.868-.205c-4.903-.898-11.65 1.49-14.725 5.205-2.111 2.54-3.538 6.936-4.13 9.025H15.425L7.244 17.051h3.07c.365 3.838 1.282 9.301 3.602 11.593 1.753 1.727 4.682 4.617 4.682 6.516 0 2.766 2.066 4.912 5.142 5.337.36.051.725.075 1.1.075 3.785 0 8.175-2.547 9.689-7.766 1.414-4.887 3.285-12.223 4.175-15.755h14.3v-6.55H7.244c-2.163 0-4.137.984-5.423 2.704a6.513 6.513 0 0 0-1.015 5.91l9.717 30.94h44.893l12.016-36.572c.013-.044 1.668-4.335 5.35-4.335v1.174h14.542V.492H72.783z"/>
        <path stroke="#111" stroke-linecap="round" stroke-linejoin="round" stroke-width="1.11" d="M42.417 43.505c.63-1.85 1.474-3.856 2.324-4.877 1.895-2.289 6.784-3.342 8.45-3.04l-2.6 7.917h-8.174zm-14.272-12.5c-.465 1.606-1.37 2.351-2.05 2.692-.352.176-.68.267-.943.303-.585-4.111-4.126-7.606-6.51-9.954-.6-.74-1.27-3.724-1.644-6.995h14.864c-.969 3.814-2.529 9.848-3.717 13.954zM72.783.492V2.6c-6.68 0-10.437 5.456-11.636 8.77l-5.95 18.111a9.614 9.614 0 0 0-.868-.205c-4.903-.898-11.65 1.49-14.725 5.205-2.111 2.54-3.538 6.936-4.13 9.025H15.425L7.244 17.051h3.07c.365 3.838 1.282 9.301 3.602 11.593 1.753 1.727 4.682 4.617 4.682 6.516 0 2.766 2.066 4.912 5.142 5.337.36.051.725.075 1.1.075 3.785 0 8.175-2.547 9.689-7.766 1.414-4.887 3.285-12.223 4.175-15.755h14.3v-6.55H7.244c-2.163 0-4.137.984-5.423 2.704a6.513 6.513 0 0 0-1.015 5.91l9.717 30.94h44.893l12.016-36.572c.013-.044 1.668-4.335 5.35-4.335v1.174h14.542V.492H72.783z"/>
        <mask id="b" fill="#fff">
            <use xlink:href="#a"/>
        </mask>
        <path fill="#FEFEFE" d="M524.593 30.824h21.953v-3.803h-21.953v3.803zm-8.346 4.785h38.645V22.236h-38.645v13.373z" mask="url(#b)"/>
        <path stroke="#060101" stroke-width="1.11" d="M524.593 30.824h21.953v-3.803h-21.953v3.803zm-8.346 4.785h38.645V22.236h-38.645v13.373z" mask="url(#b)"/>
        <path fill="#FEFEFE" d="M519.327 54.871h12.07V51.68h-12.07v3.191zm0-7.73h12.07v-2.944h-12.07v2.944zm20.415 7.73h12.581V51.68h-12.581v3.191zm0-7.73h12.581v-2.944h-12.581v2.944zm-29.015 13.61l8.6-.113h32.998l8.6-.019V38.431h-50.198v22.32z" mask="url(#b)"/>
        <path stroke="#060101" stroke-width="1.11" d="M519.327 54.871h12.07V51.68h-12.07v3.191zm0-7.73h12.07v-2.944h-12.07v2.944zm20.415 7.73h12.581V51.68h-12.581v3.191zm0-7.73h12.581v-2.944h-12.581v2.944zm-29.015 13.61l8.6-.113h32.998l8.6-.019V38.431h-50.198v22.32z" mask="url(#b)"/>
        <path fill="#FEFEFE" d="M670.373 22.175c2.076-2.76 3.68-5.398 4.813-7.915 1.307 2.823 3.319 5.46 6.036 7.915h-10.849zm14.169 5.582V22.94l1.88-4.968c-1.562-1.207-3.131-2.88-4.703-5.016-1.573-2.136-2.638-3.859-3.193-5.168h-7.769c-1.242 3.129-2.86 6.278-4.86 9.447-2.002 3.17-3.924 5.552-5.764 7.147l3.853 4.999c.963-.9 2-1.974 3.113-3.221v1.596h4.14v4.54h-8.57v5.767h8.57v17.115c-4.322.51-7.66.858-10.013 1.044l1.059 6.286c11.94-1.554 19.675-2.852 23.205-3.896v-5.46c-.627.134-1.494.287-2.581.46l2.33-9.133-4.992-1.198-1.978 7.505V38.064h7.285v-5.767h-7.285v-4.54h6.273z" mask="url(#b)"/>
        <path stroke="#060101" stroke-width="1.11" d="M670.373 22.175c2.076-2.76 3.68-5.398 4.813-7.915 1.307 2.823 3.319 5.46 6.036 7.915h-10.849zm14.169 5.582V22.94l1.88-4.968c-1.562-1.207-3.131-2.88-4.703-5.016-1.573-2.136-2.638-3.859-3.193-5.168h-7.769c-1.242 3.129-2.86 6.278-4.86 9.447-2.002 3.17-3.924 5.552-5.764 7.147l3.853 4.999c.963-.9 2-1.974 3.113-3.221v1.596h4.14v4.54h-8.57v5.767h8.57v17.115c-4.322.51-7.66.858-10.013 1.044l1.059 6.286c11.94-1.554 19.675-2.852 23.205-3.896v-5.46c-.627.134-1.494.287-2.581.46l2.33-9.133-4.992-1.198-1.978 7.505V38.064h7.285v-5.767h-7.285v-4.54h6.273z" mask="url(#b)"/>
        <path fill="#FEFEFE" d="M459.784 14.194h1.998c2.818 0 7.135-.196 11.274-1.668 2.345-.834 4.185-2.201 5.636-3.336-1.408-2.225-2.303-3.636-3.712-5.86-.964.864-2.956 1.912-5.04 2.67-3.474 1.262-4.676 1.323-13.876 1.521v6.673H459.784z" mask="url(#b)"/>
        <path stroke="#060101" stroke-width="1.11" d="M459.784 14.194h1.998c2.818 0 7.135-.196 11.274-1.668 2.345-.834 4.185-2.201 5.636-3.336-1.408-2.225-2.303-3.636-3.712-5.86-.964.864-2.956 1.912-5.04 2.67-3.474 1.262-4.676 1.323-13.876 1.521v6.673H459.784z" mask="url(#b)"/>
        <path fill="#FEFEFE" d="M213.386 7.298h-9.02v6.901h-25.098v6.963h25.098v5.86h-21.343v6.842h8.73v-.003h12.613v28.955h9.02V33.86h13.159v13.373c0 1.002-.62 1.503-1.86 1.503h-6.645l.996 7.73h9.018c1.927 0 3.622-.563 5.089-1.689 1.465-1.123 2.198-2.544 2.198-4.262V27.02h-21.955v-5.859h25.838V14.2h-25.838V7.298z" mask="url(#b)"/>
        <path stroke="#060101" stroke-width="1.11" d="M213.386 7.298h-9.02v6.901h-25.098v6.963h25.098v5.86h-21.343v6.842h8.73v-.003h12.613v28.955h9.02V33.86h13.159v13.373c0 1.002-.62 1.503-1.86 1.503h-6.645l.996 7.73h9.018c1.927 0 3.622-.563 5.089-1.689 1.465-1.123 2.198-2.544 2.198-4.262V27.02h-21.955v-5.859h25.838V14.2h-25.838V7.298z" mask="url(#b)"/>
        <path fill="#FEFEFE" d="M183.023 56.651h8.73V36.063h-8.73z" mask="url(#b)"/>
        <path stroke="#060101" stroke-width="1.11" d="M183.023 56.651h8.73V36.063h-8.73z" mask="url(#b)"/>
        <path fill="#FEFEFE" d="M263.995 37.818c-2.14 7.973-4.698 14.651-7.673 20.028l6.966 3.895c2.953-4.722 5.508-11.88 7.671-21.47l-6.964-2.453z" mask="url(#b)"/>
        <path stroke="#060101" stroke-width="1.11" d="M263.995 37.818c-2.14 7.973-4.698 14.651-7.673 20.028l6.966 3.895c2.953-4.722 5.508-11.88 7.671-21.47l-6.964-2.453z" mask="url(#b)"/>
        <path fill="#FEFEFE" d="M299.225 26.131h-14.069v.008h-9.393v6.77c0 10.143-2.066 18.731-6.197 25.765l6.133 3.774c5.05-6.707 7.627-16.952 7.735-30.735h15.79V26.13z" mask="url(#b)"/>
        <path stroke="#060101" stroke-width="1.11" d="M299.225 26.131h-14.069v.008h-9.393v6.77c0 10.143-2.066 18.731-6.197 25.765l6.133 3.774c5.05-6.707 7.627-16.952 7.735-30.735h15.79V26.13z" mask="url(#b)"/>
        <path fill="#FEFEFE" d="M464.444 29.788h5.97v-5.09h-5.97v5.09zm0 11.81h5.97V36.26h-5.97v5.338zm0 14.697h5.97v-8.164h-5.97v8.164zm14.508-8.164h9.9v-6.533h-9.9v-5.399l9.707.062v-6.473h-9.707v-5.09h11.023v-4.805h-10.999v-2.464h-8.563v2.464h-12.839l.208 16.443v26.48h8.538v-.013h24.04v-6.508h-11.408v-8.164z" mask="url(#b)"/>
        <path stroke="#060101" stroke-width="1.11" d="M464.444 29.788h5.97v-5.09h-5.97v5.09zm0 11.81h5.97V36.26h-5.97v5.338zm0 14.697h5.97v-8.164h-5.97v8.164zm14.508-8.164h9.9v-6.533h-9.9v-5.399l9.707.062v-6.473h-9.707v-5.09h11.023v-4.805h-10.999v-2.464h-8.563v2.464h-12.839l.208 16.443v26.48h8.538v-.013h24.04v-6.508h-11.408v-8.164z" mask="url(#b)"/>
        <path fill="#FEFEFE" d="M436.223 55.703h6.201V48.22h-6.2v7.484zm-7.021 6.745h7.702l13.256.06V41.836h-20.958v20.613z" mask="url(#b)"/>
        <path stroke="#060101" stroke-width="1.11" d="M436.223 55.703h6.201V48.22h-6.2v7.484zm-7.021 6.745h7.702l13.256.06V41.836h-20.958v20.613z" mask="url(#b)"/>
        <path fill="#FEFEFE" d="M427.822 22.726h23.72v-6.133h-23.72z" mask="url(#b)"/>
        <path stroke="#060101" stroke-width="1.11" d="M427.822 22.726h23.72v-6.133h-23.72z" mask="url(#b)"/>
        <path fill="#FEFEFE" d="M430.133 39.014h19.514v-5.397h-19.514z" mask="url(#b)"/>
        <path stroke="#060101" stroke-width="1.11" d="M430.133 39.014h19.514v-5.397h-19.514z" mask="url(#b)"/>
        <path fill="#FEFEFE" d="M430.07 14.014h19.898V8.555H430.07z" mask="url(#b)"/>
        <path stroke="#060101" stroke-width="1.11" d="M430.07 14.014h19.898V8.555H430.07z" mask="url(#b)"/>
        <path fill="#FEFEFE" d="M430.133 30.794h19.514v-5.367h-19.514z" mask="url(#b)"/>
        <path stroke="#060101" stroke-width="1.11" d="M430.133 30.794h19.514v-5.367h-19.514z" mask="url(#b)"/>
        <path fill="#FEFEFE" d="M555.08 14.139l1.086-5.49-7.557-1.46-1.378 6.95h-7.232v-7.24h-8.86v7.24h-7.473l-1.378-6.95-7.56 1.46 1.089 5.49h-9.585v12.637h7.319v-7.36h43.778v7.36h7.32V14.139h-7.831z" mask="url(#b)"/>
        <path stroke="#060101" stroke-width="1.11" d="M555.08 14.139l1.086-5.49-7.557-1.46-1.378 6.95h-7.232v-7.24h-8.86v7.24h-7.473l-1.378-6.95-7.56 1.46 1.089 5.49h-9.585v12.637h7.319v-7.36h43.778v7.36h7.32V14.139h-7.831z" mask="url(#b)"/>
        <path fill="#FEFEFE" d="M623.93 38.064h18.391v-7.025h-23.975V23.64h17.817V16.62h-17.817V8.274h-9.277v8.345h-8.154c.076-.149.162-.288.235-.44 1.304-2.637 1.728-5.318 2.013-7.48l-8.116-1.966c-.095 1.529-.916 4.063-2.06 6.42-.666 1.371-1.223 2.392-1.988 3.466h-2.28v7.021h20.35v7.399h-25.1v7.025h16.146c-.536 4.722-2.194 8.546-4.976 11.471-2.782 2.923-7.03 5.03-12.743 6.317l2.89 6.963c7.381-1.574 13.046-4.386 16.995-8.435 3.947-4.05 6.2-9.487 6.756-16.316h14.893z" mask="url(#b)"/>
        <path stroke="#060101" stroke-width="1.11" d="M623.93 38.064h18.391v-7.025h-23.975V23.64h17.817V16.62h-17.817V8.274h-9.277v8.345h-8.154c.076-.149.162-.288.235-.44 1.304-2.637 1.728-5.318 2.013-7.48l-8.116-1.966c-.095 1.529-.916 4.063-2.06 6.42-.666 1.371-1.223 2.392-1.988 3.466h-2.28v7.021h20.35v7.399h-25.1v7.025h16.146c-.536 4.722-2.194 8.546-4.976 11.471-2.782 2.923-7.03 5.03-12.743 6.317l2.89 6.963c7.381-1.574 13.046-4.386 16.995-8.435 3.947-4.05 6.2-9.487 6.756-16.316h14.893z" mask="url(#b)"/>
        <path fill="#FEFEFE" d="M634.393 50.27c-.128 1.617-.347 2.658-.656 3.13-.313.47-1.098.75-2.36.843-1.264.092-2.227.138-2.89.138-1.712 0-2.899-.092-3.562-.276-.662-.184-.994-.593-.994-1.228V41.144h-8.956V54.78c0 1.942.534 3.476 1.605 4.602 1.07 1.123 2.273 1.82 3.612 2.085 1.336.266 4.133.397 8.392.397 3.637 0 6.017-.055 7.141-.168a8.41 8.41 0 0 0 3.227-1.011 6.819 6.819 0 0 0 2.487-2.317c.631-.98.947-2.115.947-3.404v-9.539l-7.8-1.074c0 2.332-.063 4.305-.193 5.92" mask="url(#b)"/>
        <path stroke="#060101" stroke-width="1.11" d="M634.393 50.27c-.128 1.617-.347 2.658-.656 3.13-.313.47-1.098.75-2.36.843-1.264.092-2.227.138-2.89.138-1.712 0-2.899-.092-3.562-.276-.662-.184-.994-.593-.994-1.228V41.144h-8.956V54.78c0 1.942.534 3.476 1.605 4.602 1.07 1.123 2.273 1.82 3.612 2.085 1.336.266 4.133.397 8.392.397 3.637 0 6.017-.055 7.141-.168a8.41 8.41 0 0 0 3.227-1.011 6.819 6.819 0 0 0 2.487-2.317c.631-.98.947-2.115.947-3.404v-9.539l-7.8-1.074c0 2.332-.063 4.305-.193 5.92z" mask="url(#b)"/>
        <path fill="#FEFEFE" d="M371.741 53.68h20.601v-6.183h-20.6V43.59h-9.132v3.907h-19.323v6.183h19.323v4.091h-23.344v6.552h56.722v-6.552h-24.247z" mask="url(#b)"/>
        <path stroke="#060101" stroke-width="1.11" d="M371.741 53.68h20.601v-6.183h-20.6V43.59h-9.132v3.907h-19.323v6.183h19.323v4.091h-23.344v6.552h56.722v-6.552h-24.247z" mask="url(#b)"/>
        <path fill="#FEFEFE" d="M339.047 40.667l3.584 5.506c7.044-2.276 11.51-6.183 13.402-11.72h10.72V22.086h-6.7v7.136h-3.147v-7.206h-7.573v5.945c0 .35-.022.77-.063 1.261h-3.21v-7.136h-6.887v12.365h8.601c-1.559 2.75-4.468 4.82-8.727 6.215" mask="url(#b)"/>
        <path stroke="#060101" stroke-width="1.11" d="M339.047 40.667l3.584 5.506c7.044-2.276 11.51-6.183 13.402-11.72h10.72V22.086h-6.7v7.136h-3.147v-7.206h-7.573v5.945c0 .35-.022.77-.063 1.261h-3.21v-7.136h-6.887v12.365h8.601c-1.559 2.75-4.468 4.82-8.727 6.215z" mask="url(#b)"/>
        <path fill="#FEFEFE" d="M368.654 20.334v-6.43H362.132V8.305h-5.797v5.597H347.638V8.306h-5.8v5.597h-4.66v6.431h12.154z" mask="url(#b)"/>
        <path stroke="#060101" stroke-width="1.11" d="M368.654 20.334v-6.43H362.132V8.305h-5.797v5.597H347.638V8.306h-5.8v5.597h-4.66v6.431h12.154z" mask="url(#b)"/>
        <path fill="#FEFEFE" d="M372.52 15.586c.268 4.198-.029 8.419-.968 12.522-.086.383-.17.727-.248 1.023-.54 2.072-1.298 3.764-2.275 5.075-.976 1.314-2.514 2.822-4.612 4.523l5.36 4.738c4.738-3.65 7.74-7.537 9.007-11.659h7.48v-5.045h-6.513c.207-1.662.321-2.88.343-3.66h6.17v-4.8h-6.17v-3.26h7.854v20.21c0 1.107-.53 1.662-1.59 1.662h-5.485l1.09 6.982h7.916c1.455 0 2.852-.543 4.192-1.63 1.342-1.087 2.01-2.41 2.01-3.969V9.26h-23.967l.405 6.327z" mask="url(#b)"/>
        <path stroke="#060101" stroke-width="1.11" d="M372.52 15.586c.268 4.198-.029 8.419-.968 12.522-.086.383-.17.727-.248 1.023-.54 2.072-1.298 3.764-2.275 5.075-.976 1.314-2.514 2.822-4.612 4.523l5.36 4.738c4.738-3.65 7.74-7.537 9.007-11.659h7.48v-5.045h-6.513c.207-1.662.321-2.88.343-3.66h6.17v-4.8h-6.17v-3.26h7.854v20.21c0 1.107-.53 1.662-1.59 1.662h-5.485l1.09 6.982h7.916c1.455 0 2.852-.543 4.192-1.63 1.342-1.087 2.01-2.41 2.01-3.969V9.26h-23.967l.405 6.327z" mask="url(#b)"/>
        <path fill="#FEFEFE" d="M130.994 55.163a38.068 38.068 0 0 1-7.078-1.274l-.032-10.427h6.677v-5.981h-6.677l-.016-3.167h-8.36v15.864a36.675 36.675 0 0 1-3.244-2.361c.406-4.461.657-7.922.754-10.416h-7.826c-.03 3.943-.426 8.011-1.208 12.21-.814 4.366-1.948 7.97-3.402 10.812l6.644 2.944c1.37-2.106 2.524-4.877 3.466-8.312a30.197 30.197 0 0 0 7.704 4.172c2.781 1.023 5.284 1.717 7.51 2.086 2.225.367 4.446.608 6.66.72 2.215.113 7.772.17 16.675.17 3.958 0 8.58-.011 13.866-.032l1.572-7.024c-3.766.226-10.39.338-19.867.338-6.742 0-11.347-.108-13.818-.322" mask="url(#b)"/>
        <path stroke="#060101" stroke-width="1.11" d="M130.994 55.163a38.068 38.068 0 0 1-7.078-1.274l-.032-10.427h6.677v-5.981h-6.677l-.016-3.167h-8.36v15.864a36.675 36.675 0 0 1-3.244-2.361c.406-4.461.657-7.922.754-10.416h-7.826c-.03 3.943-.426 8.011-1.208 12.21-.814 4.366-1.948 7.97-3.402 10.812l6.644 2.944c1.37-2.106 2.524-4.877 3.466-8.312a30.197 30.197 0 0 0 7.704 4.172c2.781 1.023 5.284 1.717 7.51 2.086 2.225.367 4.446.608 6.66.72 2.215.113 7.772.17 16.675.17 3.958 0 8.58-.011 13.866-.032l1.572-7.024c-3.766.226-10.39.338-19.867.338-6.742 0-11.347-.108-13.818-.322z" mask="url(#b)"/>
        <path fill="#FEFEFE" d="M115.507 31.224h8.346l-.001-.03h7.318V24.72h-8.152v-5.399h8.152v-5.95h-8.152v-5.52h-8.89v5.52h-9.663v5.95h9.662v5.399h-11.299v6.472h12.68z" mask="url(#b)"/>
        <path stroke="#060101" stroke-width="1.11" d="M115.507 31.224h8.346l-.001-.03h7.318V24.72h-8.152v-5.399h8.152v-5.95h-8.152v-5.52h-8.89v5.52h-9.663v5.95h9.662v5.399h-11.299v6.472h12.68z" mask="url(#b)"/>
        <path fill="#FEFEFE" d="M142.836 46.467h11.426v-6.841h-11.426v6.84zm-8.346 6.41h28.438V33.4H134.49v19.478z" mask="url(#b)"/>
        <path stroke="#060101" stroke-width="1.11" d="M142.836 46.467h11.426v-6.841h-11.426v6.84zm-8.346 6.41h28.438V33.4H134.49v19.478z" mask="url(#b)"/>
        <path fill="#FEFEFE" d="M138.276 21.898a17.673 17.673 0 0 1-4.186 3.586c.837 2.208 1.672 4.42 2.507 6.63 3.933-1.976 6.453-4.361 7.883-5.941.759-.84 1.963-2.186 3.078-4.254a19.885 19.885 0 0 0 2.2-6.829c2.103-.033 4.038.038 6.226 0 .134 3.208-.09 5.016-.397 6.057-.197.667-.492 1.339-1.038 1.8-1.184 1.002-2.961.801-4.404.805l-2.876.01c.376 2.31.75 4.62 1.124 6.93l6.54-.113c1.17-.008 3.109-.204 5.027-1.353.416-.25 1.228-.745 1.994-1.63 1.21-1.398 1.595-2.949 1.856-4.413.56-3.147.529-5.491.525-10.377-.002-1.784.005-3.217.01-4.044h-29.624v6.227l6.659-.058c-.184 1.41-.657 3.413-1.95 5.434-.084.132-.481.74-1.154 1.533" mask="url(#b)"/>
        <path stroke="#060101" stroke-width="1.11" d="M138.276 21.898a17.673 17.673 0 0 1-4.186 3.586c.837 2.208 1.672 4.42 2.507 6.63 3.933-1.976 6.453-4.361 7.883-5.941.759-.84 1.963-2.186 3.078-4.254a19.885 19.885 0 0 0 2.2-6.829c2.103-.033 4.038.038 6.226 0 .134 3.208-.09 5.016-.397 6.057-.197.667-.492 1.339-1.038 1.8-1.184 1.002-2.961.801-4.404.805l-2.876.01c.376 2.31.75 4.62 1.124 6.93l6.54-.113c1.17-.008 3.109-.204 5.027-1.353.416-.25 1.228-.745 1.994-1.63 1.21-1.398 1.595-2.949 1.856-4.413.56-3.147.529-5.491.525-10.377-.002-1.784.005-3.217.01-4.044h-29.624v6.227l6.659-.058c-.184 1.41-.657 3.413-1.95 5.434-.084.132-.481.74-1.154 1.533z" mask="url(#b)"/>
        <path fill="#FEFEFE" d="M270.471 20.334c-1.85-6.252-2.701-7.872-4.163-11.075l-8.079.357c2.28 6.212 3.511 8.958 4.333 11.962l7.91-1.244z" mask="url(#b)"/>
        <path stroke="#060101" stroke-width="1.11" d="M270.471 20.334c-1.85-6.252-2.701-7.872-4.163-11.075l-8.079.357c2.28 6.212 3.511 8.958 4.333 11.962l7.91-1.244z" mask="url(#b)"/>
        <path fill="#FEFEFE" d="M269.63 33.874c-2.124-6.077-2.486-6.646-3.946-9.848l-7.7.747c2.282 6.214 3.181 8.039 4 11.046l7.647-1.945z" mask="url(#b)"/>
        <path stroke="#060101" stroke-width="1.11" d="M269.63 33.874c-2.124-6.077-2.486-6.646-3.946-9.848l-7.7.747c2.282 6.214 3.181 8.039 4 11.046l7.647-1.945z" mask="url(#b)"/>
        <path fill="#FEFEFE" d="M670.116 52.815a90.147 90.147 0 0 0-2.106-12.785l-5.405.855c1.263 6.686 1.946 11.063 2.054 13.127h.032c.279 0 2.086-.398 5.425-1.197" mask="url(#b)"/>
        <path stroke="#060101" stroke-width="1.11" d="M670.116 52.815a90.147 90.147 0 0 0-2.106-12.785l-5.405.855c1.263 6.686 1.946 11.063 2.054 13.127h.032c.279 0 2.086-.398 5.425-1.197z" mask="url(#b)"/>
        <path fill="#FEFEFE" d="M704.328 13.103h8.49c-.192 1.103-.997 3.206-2.215 5.29-1.007 1.727-2.577 3.334-3.415 3.833-.813-.32-2.456-1.392-4.023-2.777a9.198 9.198 0 0 1-1.607-1.87c.924-1.49 1.847-2.984 2.77-4.476zM690.67 35.172c6.546-1.145 11.925-2.953 16.137-5.426 3.733 2.065 8.624 3.873 14.673 5.426l2.957-6.407c-4.42-.898-8.297-2.075-11.629-3.527 0 0 4.254-1.835 6.966-9.272.309-.849 3.002-8.588 1.797-8.597-4.985-.037-9.971-.003-14.957-.003h-6.87c-2.508 5.213-6.021 9.546-10.54 12.998l3.476 4.57c1.301-.797 2.843-2.025 4.622-3.68a31.788 31.788 0 0 0 3.733 4.23c-3.388 1.78-7.485 3.169-12.289 4.17l1.924 5.518z" mask="url(#b)"/>
        <path stroke="#060101" stroke-width="1.11" d="M704.328 13.103h8.49c-.192 1.103-.997 3.206-2.215 5.29-1.007 1.727-2.577 3.334-3.415 3.833-.813-.32-2.456-1.392-4.023-2.777a9.198 9.198 0 0 1-1.607-1.87c.924-1.49 1.847-2.984 2.77-4.476zM690.67 35.172c6.546-1.145 11.925-2.953 16.137-5.426 3.733 2.065 8.624 3.873 14.673 5.426l2.957-6.407c-4.42-.898-8.297-2.075-11.629-3.527 0 0 4.254-1.835 6.966-9.272.309-.849 3.002-8.588 1.797-8.597-4.985-.037-9.971-.003-14.957-.003h-6.87c-2.508 5.213-6.021 9.546-10.54 12.998l3.476 4.57c1.301-.797 2.843-2.025 4.622-3.68a31.788 31.788 0 0 0 3.733 4.23c-3.388 1.78-7.485 3.169-12.289 4.17l1.924 5.518z" mask="url(#b)"/>
        <path fill="#FEFEFE" d="M710.893 48.743h10.656v-5.43h-10.656v-2.362h11.78V35.4h-11.78v-3.007h-8.408V35.4h-12.679v5.551h12.68v2.363H690.8v5.429h11.684v2.361h-13.74v6.103h13.74v6.227h8.408v-6.227h13.544v-6.103h-13.544z" mask="url(#b)"/>
        <path stroke="#060101" stroke-width="1.11" d="M710.893 48.743h10.656v-5.43h-10.656v-2.362h11.78V35.4h-11.78v-3.007h-8.408V35.4h-12.679v5.551h12.68v2.363H690.8v5.429h11.684v2.361h-13.74v6.103h13.74v6.227h8.408v-6.227h13.544v-6.103h-13.544z" mask="url(#b)"/>
        <path fill="#FEFEFE" d="M290.135 48.676h5.438V40.27h-5.438v8.406zm26.518 1.15c-.17 1.769-.305 2.715-.4 2.836-.098.124-.21.184-.336.184a.773.773 0 0 1-.58-.23c-.15-.152-.497-.77-1.043-1.855a64.29 64.29 0 0 1-1.525-3.252c3.746-6.89 6.42-13.699 8.026-20.428l-7.896-1.654c-.686 3.557-1.798 7.35-3.34 11.378-.897-4.724-1.443-9.303-1.635-13.74h12.87v-6.596H307.796l.012-3.165h13.041V7.238H299.612v9.231h-23.85v6.594h9.395v.001h15.063c.577 9.794 1.968 17.77 4.172 23.925a60.96 60.96 0 0 1-3.659 5.735V35.24h-16.176v18.716l6.58.117h8.601a57.917 57.917 0 0 1-3.594 4.355l5.522 4.264c2.287-2.251 4.44-4.806 6.45-7.668 1.969 3.374 3.542 5.516 4.717 6.425 1.177.91 2.473 1.365 3.884 1.365 1.327 0 2.574-.464 3.74-1.395 1.166-.93 1.904-2.648 2.215-5.153.309-2.504.466-5.924.466-10.26v-1.35L316.91 43.4c0 2.517-.086 4.657-.257 6.427z" mask="url(#b)"/>
        <path stroke="#060101" stroke-width="1.11" d="M290.135 48.676h5.438V40.27h-5.438v8.406zm26.518 1.15c-.17 1.769-.305 2.715-.4 2.836-.098.124-.21.184-.336.184a.773.773 0 0 1-.58-.23c-.15-.152-.497-.77-1.043-1.855a64.29 64.29 0 0 1-1.525-3.252c3.746-6.89 6.42-13.699 8.026-20.428l-7.896-1.654c-.686 3.557-1.798 7.35-3.34 11.378-.897-4.724-1.443-9.303-1.635-13.74h12.87v-6.596H307.796l.012-3.165h13.041V7.238H299.612v9.231h-23.85v6.594h9.395v.001h15.063c.577 9.794 1.968 17.77 4.172 23.925a60.96 60.96 0 0 1-3.659 5.735V35.24h-16.176v18.716l6.58.117h8.601a57.917 57.917 0 0 1-3.594 4.355l5.522 4.264c2.287-2.251 4.44-4.806 6.45-7.668 1.969 3.374 3.542 5.516 4.717 6.425 1.177.91 2.473 1.365 3.884 1.365 1.327 0 2.574-.464 3.74-1.395 1.166-.93 1.904-2.648 2.215-5.153.309-2.504.466-5.924.466-10.26v-1.35L316.91 43.4c0 2.517-.086 4.657-.257 6.427z" mask="url(#b)"/>
    </g>
</svg>
