<svg xmlns="http://www.w3.org/2000/svg" width="106" height="106" viewBox="0 0 106 106">
    <g fill="none" fill-rule="evenodd">
        <circle cx="53" cy="53" r="53" fill="#FFCE33" fill-rule="nonzero"/>
        <path fill="#FFF" fill-rule="nonzero" stroke="#FFF" stroke-width=".25" d="M80 49.87v-5.55a.9.9 0 0 0-.09-.38l-6.2-12.84a.9.9 0 0 0-.81-.51H33.11a.9.9 0 0 0-.81.51l-6.2 12.83a.9.9 0 0 0-.09.38v5.54a4.64 4.64 0 0 0 3.73 4.54V79.6H26.9a.905.905 0 1 0 0 1.81h52.2a.905.905 0 1 0 0-1.81h-2.83V54.41A4.64 4.64 0 0 0 80 49.87zm-1.81 0a2.83 2.83 0 0 1-2.82 2.82 2.83 2.83 0 0 1-2.82-2.82v-4.64h5.65l-.01 4.64zm-7.46 0a2.825 2.825 0 0 1-5.65 0v-4.64h5.64l.01 4.64zm-7.46 0a2.825 2.825 0 0 1-5.65 0v-4.64h5.65v4.64zm-7.46 0a2.825 2.825 0 0 1-5.65 0v-4.64h5.65v4.64zm-7.46 0a2.825 2.825 0 0 1-5.65 0v-4.64h5.65v4.64zm-7.46 0a2.825 2.825 0 0 1-5.65 0v-4.64h5.65v4.64zM33.67 32.4h38.65l5.33 11h-49.3l5.32-11zm-5.86 17.47v-4.64h5.65v4.64a2.83 2.83 0 0 1-2.82 2.83 2.83 2.83 0 0 1-2.83-2.83zm21.35 9.49V79.6h-5.65V59.36h5.65zM41.7 79.6h-5.64V59.36h5.64V79.6zm9.27 0V58.46a.9.9 0 0 0-.9-.91H35.15a.9.9 0 0 0-.9.9V79.6h-2.71V54.41a4.64 4.64 0 0 0 2.82-1.8 4.62 4.62 0 0 0 7.46 0 4.62 4.62 0 0 0 7.46 0 4.62 4.62 0 0 0 7.46 0 4.62 4.62 0 0 0 7.46 0 4.62 4.62 0 0 0 7.46 0 4.64 4.64 0 0 0 2.82 1.8V79.6H50.97z"/>
        <path stroke="#FFF" stroke-linecap="round" stroke-linejoin="round" stroke-width="2" d="M56 59h12v12H56z"/>
    </g>
</svg>
