<svg xmlns="http://www.w3.org/2000/svg" width="106" height="106" viewBox="0 0 106 106">
    <g fill="none" fill-rule="evenodd">
        <path fill="#FFCE33" d="M106 53c0 29.271-23.729 53-53 53S0 82.271 0 53 23.729 0 53 0s53 23.729 53 53"/>
        <path fill="#FFF" d="M51.925 50.531c1.711 0 3.425.486 4.956 1.405a10.733 10.733 0 0 1 2.586 2.176l-2.559-.084a.545.545 0 0 0-.035 1.088l3.54.117a.544.544 0 0 0 .71-.712l-.117-3.538a.544.544 0 1 0-1.088.036l.067 2.041a11.886 11.886 0 0 0-2.543-2.058c-1.7-1.02-3.608-1.56-5.517-1.56-3.049 0-5.859 1.257-7.914 3.54-1.819 2.022-2.905 4.743-2.905 7.28a.543.543 0 1 0 1.088 0c0-2.275.982-4.724 2.627-6.552 1.845-2.05 4.368-3.179 7.104-3.179"/>
        <path stroke="#FFF" d="M51.925 50.531c1.711 0 3.425.486 4.956 1.405a10.733 10.733 0 0 1 2.586 2.176l-2.559-.084a.545.545 0 0 0-.035 1.088l3.54.117a.544.544 0 0 0 .71-.712l-.117-3.538a.544.544 0 1 0-1.088.036l.067 2.041a11.886 11.886 0 0 0-2.543-2.058c-1.7-1.02-3.608-1.56-5.517-1.56-3.049 0-5.859 1.257-7.914 3.54-1.819 2.022-2.905 4.743-2.905 7.28a.543.543 0 1 0 1.088 0c0-2.275.982-4.724 2.627-6.552 1.845-2.05 4.368-3.179 7.104-3.179z"/>
        <path fill="#FFF" d="M62.337 59.718a.544.544 0 0 0-.544.544c0 2.275-.982 4.725-2.627 6.552-1.845 2.05-4.368 3.179-7.104 3.179-1.71 0-3.425-.485-4.956-1.404a10.718 10.718 0 0 1-2.586-2.177l2.558.085a.544.544 0 0 0 .036-1.09l-3.54-.115a.544.544 0 0 0-.71.71l.117 3.539a.543.543 0 1 0 1.088-.024v-.011l-.067-2.042a11.92 11.92 0 0 0 2.543 2.059c1.701 1.02 3.608 1.559 5.517 1.559 3.048 0 5.86-1.257 7.913-3.54 1.82-2.021 2.906-4.742 2.906-7.28 0-.3-.243-.544-.544-.544"/>
        <path stroke="#FFF" d="M62.337 59.718a.544.544 0 0 0-.544.544c0 2.275-.982 4.725-2.627 6.552-1.845 2.05-4.368 3.179-7.104 3.179-1.71 0-3.425-.485-4.956-1.404a10.718 10.718 0 0 1-2.586-2.177l2.558.085a.544.544 0 0 0 .036-1.09l-3.54-.115a.544.544 0 0 0-.71.71l.117 3.539a.543.543 0 1 0 1.088-.024v-.011l-.067-2.042a11.92 11.92 0 0 0 2.543 2.059c1.701 1.02 3.608 1.559 5.517 1.559 3.048 0 5.86-1.257 7.913-3.54 1.82-2.021 2.906-4.742 2.906-7.28 0-.3-.243-.544-.544-.544z"/>
        <path stroke="#FFF" stroke-linecap="round" stroke-linejoin="round" stroke-width="2" d="M33 26v55h36.967V26h-8.114v15.4H41.115V26z"/>
    </g>
</svg>
