<svg xmlns="http://www.w3.org/2000/svg" width="106" height="106" viewBox="0 0 106 106">
    <g fill="none" fill-rule="nonzero">
        <circle cx="53" cy="53" r="53" fill="#FFCE33"/>
        <path fill="#FFF" d="M70.26 38.39c0-.1-.1-.3-.1-.4a1.72 1.72 0 0 0 .1-.71v-6.16A2.24 2.24 0 0 0 68 28.9H39.46a2.24 2.24 0 0 0-2.22 2.22v6.26c0 .3.1.5.1.81a.44.44 0 0 0-.1.5v.2l-5 37.47a.79.79 0 0 0 .2.81c.22.201.511.31.81.3h9.09l.2 1.62a1.07 1.07 0 0 0 1 .91H73.6a.79.79 0 0 0 .71-.3c.16-.244.262-.52.3-.81l-4.35-40.5zm-31-7.27a.22.22 0 0 1 .2-.2h28.68a.22.22 0 0 1 .2.2v6.26a.22.22 0 0 1-.2.2H39.46a.22.22 0 0 1-.2-.2v-6.26zm-4.95 44.44l3.94-29 3.84 29h-7.78zm10.1 2.52l-5-38.48h29.04l4 38.48H44.41z"/>
        <path fill="#FFF" d="M57.72 64.88l-2.43.34c-.233-1.753-.36-2.85-.38-3.29a3.93 3.93 0 0 1 .18-1.35c.11-.4.293-.776.54-1.11a10.81 10.81 0 0 1 1.64-1.41 16.09 16.09 0 0 0 1.93-1.64 4.32 4.32 0 0 0 1-3.4 3.67 3.67 0 0 0-1.81-2.83 5.2 5.2 0 0 0-3.39-.62c-2.86.393-4.373 2.293-4.54 5.7l-2.59-.19c.213-4.667 2.527-7.297 6.94-7.89a8 8 0 0 1 5.71 1.09 6.11 6.11 0 0 1 2.73 4.45c.347 2.507-.817 4.71-3.49 6.61a7.94 7.94 0 0 0-2.1 1.88 3 3 0 0 0-.21 1.78l.27 1.88zm.91 2.33l.46 3.32-3.4.47-.46-3.32 3.4-.47z"/>
    </g>
</svg>
